PathFileType	4	(X/Y/Z)	C:\Users\italobelli\Desktop\GitHub\PTbot_officialCBL\Personal_Results\ABD22_noisy2.trc
DataRate	CameraRate	NumFrames	NumMarkers	Units	OrigDataRate	OrigDataStartFrame	OrigNumFrames
106.125000	106.125000	21	9	m	106.125000	638	850
Frame#	Time		gu		centelbow		EpL		centpxt8		centijc7		ij		ts		aa		ai
			X1	Y1	Z1	X2	Y2	Z2	X3	Y3	Z3	X4	Y4	Z4	X5	Y5	Z5	X6	Y6	Z6	X7	Y7	Z7	X8	Y8	Z8	X9	Y9	Z9

638	6.0024	-0.10459	0.0066181	0.1606	-0.11921	-0.2143	0.25466	-0.12491	-0.19848	0.28217	-0.046816	-0.15316	-0.008669	-0.046816	0.031938	-0.008669	0	0	0	-0.13029	0.028705	0.029898	-0.13621	0.037878	0.14866	-0.13904	-0.083665	0.043381
639	6.0118	-0.1045	0.0063845	0.16059	-0.1194	-0.21495	0.25287	-0.12501	-0.19937	0.28054	-0.046816	-0.15316	-0.008669	-0.046816	0.031938	-0.008669	0	0	0	-0.1302	0.028734	0.029977	-0.13609	0.037764	0.14875	-0.13903	-0.083643	0.043343
640	6.0212	-0.10441	0.0061539	0.16058	-0.11959	-0.21561	0.25106	-0.1251	-0.20026	0.27887	-0.046816	-0.15316	-0.008669	-0.046816	0.031938	-0.008669	0	0	0	-0.13011	0.028763	0.030056	-0.13597	0.03765	0.14885	-0.13902	-0.083621	0.043304
641	6.0306	-0.10432	0.0059264	0.16057	-0.11977	-0.21626	0.24923	-0.1252	-0.20115	0.27719	-0.046816	-0.15316	-0.008669	-0.046816	0.031938	-0.008669	0	0	0	-0.13002	0.028793	0.030136	-0.13585	0.037536	0.14894	-0.13899	-0.083599	0.043265
642	6.04	-0.10422	0.0057021	0.16056	-0.11995	-0.2169	0.24737	-0.12529	-0.20202	0.27547	-0.046816	-0.15316	-0.008669	-0.046816	0.031938	-0.008669	0	0	0	-0.12993	0.028822	0.030216	-0.13573	0.037424	0.14903	-0.13896	-0.083578	0.043226
643	6.0495	-0.10413	0.0054811	0.16055	-0.12013	-0.21753	0.2455	-0.12539	-0.20288	0.27374	-0.046816	-0.15316	-0.008669	-0.046816	0.031938	-0.008669	0	0	0	-0.12984	0.028853	0.030297	-0.13561	0.037312	0.14912	-0.13893	-0.083556	0.043187
644	6.0589	-0.10403	0.0052634	0.16054	-0.12031	-0.21816	0.24361	-0.12547	-0.20373	0.27198	-0.046816	-0.15316	-0.008669	-0.046816	0.031938	-0.008669	0	0	0	-0.12975	0.028883	0.030379	-0.13549	0.037201	0.14922	-0.13889	-0.083534	0.043148
645	6.0683	-0.10392	0.0050491	0.16053	-0.12048	-0.21879	0.2417	-0.12556	-0.20458	0.27021	-0.046816	-0.15316	-0.008669	-0.046816	0.031938	-0.008669	0	0	0	-0.12965	0.028914	0.030461	-0.13537	0.037091	0.14931	-0.13884	-0.083513	0.043109
646	6.0777	-0.10382	0.0048383	0.16052	-0.12065	-0.2194	0.23978	-0.12565	-0.20541	0.26842	-0.046816	-0.15316	-0.008669	-0.046816	0.031938	-0.008669	0	0	0	-0.12956	0.028945	0.030543	-0.13525	0.036982	0.14941	-0.13879	-0.083492	0.043069
647	6.0872	-0.10371	0.004631	0.16051	-0.12082	-0.22001	0.23785	-0.12573	-0.20623	0.26661	-0.046816	-0.15316	-0.008669	-0.046816	0.031938	-0.008669	0	0	0	-0.12946	0.028976	0.030625	-0.13513	0.036874	0.1495	-0.13874	-0.083471	0.04303
648	6.0966	-0.1036	0.0044273	0.1605	-0.12099	-0.22061	0.23592	-0.12581	-0.20704	0.2648	-0.046816	-0.15316	-0.008669	-0.046816	0.031938	-0.008669	0	0	0	-0.12937	0.029007	0.030707	-0.13501	0.036767	0.14959	-0.13868	-0.08345	0.042991
649	6.106	-0.10349	0.0042273	0.16049	-0.12115	-0.22121	0.23397	-0.12589	-0.20784	0.26297	-0.046816	-0.15316	-0.008669	-0.046816	0.031938	-0.008669	0	0	0	-0.12927	0.029038	0.03079	-0.13489	0.036662	0.14969	-0.13861	-0.083429	0.042953
650	6.1154	-0.10338	0.0040311	0.16048	-0.12131	-0.22179	0.23203	-0.12597	-0.20863	0.26114	-0.046816	-0.15316	-0.008669	-0.046816	0.031938	-0.008669	0	0	0	-0.12917	0.029069	0.030872	-0.13477	0.036558	0.14978	-0.13854	-0.083409	0.042914
651	6.1249	-0.10327	0.0038387	0.16046	-0.12147	-0.22237	0.23008	-0.12605	-0.20941	0.2593	-0.046816	-0.15316	-0.008669	-0.046816	0.031938	-0.008669	0	0	0	-0.12908	0.0291	0.030954	-0.13466	0.036455	0.14987	-0.13847	-0.083389	0.042876
652	6.1343	-0.10316	0.0036501	0.16045	-0.12162	-0.22294	0.22813	-0.12612	-0.21017	0.25746	-0.046816	-0.15316	-0.008669	-0.046816	0.031938	-0.008669	0	0	0	-0.12898	0.02913	0.031037	-0.13454	0.036353	0.14997	-0.13839	-0.08337	0.042839
653	6.1437	-0.10304	0.0034656	0.16044	-0.12177	-0.22349	0.22619	-0.12619	-0.21092	0.25562	-0.046816	-0.15316	-0.008669	-0.046816	0.031938	-0.008669	0	0	0	-0.12888	0.029161	0.031118	-0.13442	0.036254	0.15006	-0.13831	-0.08335	0.042802
654	6.1531	-0.10293	0.003285	0.16042	-0.12192	-0.22405	0.22425	-0.12626	-0.21166	0.25379	-0.046816	-0.15316	-0.008669	-0.046816	0.031938	-0.008669	0	0	0	-0.12879	0.029191	0.0312	-0.13431	0.036156	0.15015	-0.13823	-0.083332	0.042765
655	6.1625	-0.10281	0.0031086	0.16041	-0.12207	-0.22459	0.22232	-0.12633	-0.21239	0.25195	-0.046816	-0.15316	-0.008669	-0.046816	0.031938	-0.008669	0	0	0	-0.12869	0.029221	0.031281	-0.13419	0.036059	0.15024	-0.13815	-0.083313	0.042729
656	6.172	-0.1027	0.0029363	0.1604	-0.12221	-0.22512	0.22039	-0.1264	-0.2131	0.25012	-0.046816	-0.15316	-0.008669	-0.046816	0.031938	-0.008669	0	0	0	-0.1286	0.029251	0.031361	-0.13408	0.035965	0.15033	-0.13806	-0.083295	0.042694
657	6.1814	-0.10258	0.0027682	0.16038	-0.12235	-0.22564	0.21848	-0.12646	-0.2138	0.2483	-0.046816	-0.15316	-0.008669	-0.046816	0.031938	-0.008669	0	0	0	-0.1285	0.02928	0.031441	-0.13397	0.035872	0.15042	-0.13797	-0.083277	0.04266
658	6.1908	-0.10246	0.0026045	0.16037	-0.12248	-0.22615	0.21659	-0.12653	-0.21448	0.24649	-0.046816	-0.15316	-0.008669	-0.046816	0.031938	-0.008669	0	0	0	-0.12841	0.029309	0.03152	-0.13386	0.035781	0.15051	-0.13788	-0.08326	0.042626
